<svg width="32" height="32" viewBox="0 0 32 32" fill="none" xmlns="http://www.w3.org/2000/svg">
  <path d="M18.71 7.21C19.67 6.03 20.25 4.44 20.07 2.83C18.67 2.92 16.97 3.81 15.99 5.01C15.11 6.06 14.42 7.69 14.63 9.25C16.17 9.36 17.75 8.43 18.71 7.21Z" fill="currentColor"/>
  <path d="M20.06 9.54C17.43 9.38 15.25 11.05 14.04 11.05C12.81 11.05 11.09 9.58 9.09 9.62C6.5 9.66 4.1 11.18 2.83 13.54C0.24 18.32 2.13 25.06 4.65 28.71C5.9 30.57 7.34 32.64 9.34 32.57C11.3 32.49 12.04 31.33 14.37 31.33C16.67 31.33 17.37 32.57 19.41 32.53C21.5 32.49 22.76 30.69 23.97 28.82C25.37 26.69 25.95 24.6 25.97 24.49C25.93 24.47 22.09 22.98 22.05 18.47C22.01 14.73 25.05 12.95 25.21 12.84C23.23 9.96 20.19 9.58 20.06 9.54Z" fill="currentColor"/>
</svg>