<svg width="32" height="32" viewBox="0 0 32 32" fill="none" xmlns="http://www.w3.org/2000/svg">
  <circle cx="16" cy="16" r="14" fill="#F7931A"/>
  <path d="M20.1 14.2C20.5 11.9 18.9 10.7 16.7 10L17.4 7.4L15.8 7L15.1 9.5C14.7 9.4 14.3 9.3 13.9 9.2L14.6 6.7L13 6.3L12.3 8.9C12 8.8 11.7 8.7 11.4 8.6V8.6L9.2 8.1L8.8 9.8C8.8 9.8 10 10.1 10 10.1C10.6 10.2 10.7 10.6 10.7 10.9L9.9 13.8L10 13.8L9.9 13.8L8.8 17.8C8.7 18 8.5 18.3 8.1 18.2C8.1 18.2 7 17.9 7 17.9L6.3 19.7L8.4 20.2C8.8 20.3 9.1 20.4 9.5 20.5L8.8 23.1L10.4 23.5L11.1 20.9C11.5 21 11.9 21.1 12.3 21.2L11.6 23.8L13.2 24.2L13.9 21.6C16.7 22.1 18.8 21.9 19.7 19.4C20.4 17.4 19.7 16.2 18.3 15.4C19.3 15.1 20 14.4 20.1 14.2ZM17.3 18.7C16.8 20.7 13.4 19.5 12.3 19.2L13.2 15.6C14.3 15.9 17.8 16.6 17.3 18.7ZM17.8 14.2C17.4 15.9 14.6 14.9 13.7 14.7L14.5 11.4C15.4 11.6 18.2 12.4 17.8 14.2Z" fill="white"/>
</svg>