<svg width="32" height="32" viewBox="0 0 32 32" fill="none" xmlns="http://www.w3.org/2000/svg">
  <path d="M16.24 12.78C15.52 12.78 14.85 13.06 14.35 13.56L12.93 12.14C13.78 11.29 14.97 10.78 16.24 10.78C18.78 10.78 20.85 12.85 20.85 15.39C20.85 17.93 18.78 20 16.24 20C13.7 20 11.63 17.93 11.63 15.39H13.63C13.63 16.82 14.81 18 16.24 18C17.67 18 18.85 16.82 18.85 15.39C18.85 13.96 17.67 12.78 16.24 12.78Z" fill="#4285F4"/>
  <path d="M26 14V16H24V18H22V16H20V14H22V12H24V14H26Z" fill="#34A853"/>
  <path d="M8 14C8 11.24 10.24 9 13 9V11C11.34 11 10 12.34 10 14C10 15.66 11.34 17 13 17V19C10.24 19 8 16.76 8 14Z" fill="#FBBC05"/>
  <path d="M13 14C13 12.9 13.9 12 15 12V16C13.9 16 13 15.1 13 14Z" fill="#EA4335"/>
</svg>