<svg width="21" height="20" viewBox="0 0 21 20" fill="none" xmlns="http://www.w3.org/2000/svg">
<path d="M20.9905 19.6396H0V18.0251H20.9905V19.6396ZM10.955 0.952523C11.0188 0.282742 11.686 -0.155722 12.3259 0.0519165C12.7079 0.176015 12.9865 0.506976 13.0428 0.904597L14.4007 10.4878L19.8313 11.9245C20.7025 12.1551 21.2011 13.0704 20.9226 13.9274C20.6547 14.752 19.7692 15.2028 18.9447 14.9349L1.29799 9.20176C0.822811 9.04722 0.528881 8.57166 0.603067 8.0775L1.12126 4.62684C1.16456 4.33942 1.45585 4.15959 1.73232 4.24942C1.88177 4.29812 1.99733 4.41858 2.03984 4.56992L2.75873 7.12996L10.1772 9.11589L10.955 0.952523Z" fill="#141B34"/>
</svg>
