<svg width="24" height="24" viewBox="0 0 24 24" fill="none" xmlns="http://www.w3.org/2000/svg">
<path d="M3.33337 20.1304H20.6667" stroke="#B05D33"/>
<path d="M1.76426 21.1982C1.63408 21.3249 1.63408 21.5303 1.76426 21.6569C1.89443 21.7836 2.10549 21.7836 2.23566 21.6569L1.76426 21.1982ZM6.90236 17.1164C7.03249 16.9897 7.03249 16.7844 6.90236 16.6577C6.77216 16.5311 6.5611 16.5311 6.43093 16.6577L6.90236 17.1164ZM2.23566 21.6569L6.90236 17.1164L6.43093 16.6577L1.76426 21.1982L2.23566 21.6569Z" fill="#D67B4D"/>
<path d="M1.76426 21.1982C1.63408 21.3249 1.63408 21.5303 1.76426 21.6569C1.89443 21.7836 2.10549 21.7836 2.23566 21.6569L1.76426 21.1982ZM6.90236 17.1164C7.03249 16.9897 7.03249 16.7844 6.90236 16.6577C6.77216 16.5311 6.5611 16.5311 6.43093 16.6577L6.90236 17.1164ZM2.23566 21.6569L6.90236 17.1164L6.43093 16.6577L1.76426 21.1982L2.23566 21.6569Z" fill="#D67B4D"/>
<path d="M22.2357 21.1982C22.3659 21.3249 22.3659 21.5303 22.2357 21.6569C22.1055 21.7836 21.8945 21.7836 21.7643 21.6569L22.2357 21.1982ZM17.0976 17.1164C16.9675 16.9897 16.9675 16.7844 17.0976 16.6577C17.2278 16.5311 17.4389 16.5311 17.5691 16.6577L17.0976 17.1164ZM21.7643 21.6569L17.0976 17.1164L17.5691 16.6577L22.2357 21.1982L21.7643 21.6569Z" fill="#D67B4D"/>
<path d="M22.2357 21.1982C22.3659 21.3249 22.3659 21.5303 22.2357 21.6569C22.1055 21.7836 21.8945 21.7836 21.7643 21.6569L22.2357 21.1982ZM17.0976 17.1164C16.9675 16.9897 16.9675 16.7844 17.0976 16.6577C17.2278 16.5311 17.4389 16.5311 17.5691 16.6577L17.0976 17.1164ZM21.7643 21.6569L17.0976 17.1164L17.5691 16.6577L22.2357 21.1982L21.7643 21.6569Z" fill="#D67B4D"/>
<path fill-rule="evenodd" clip-rule="evenodd" d="M7.33337 2.78048C7.55557 2.6645 8.06671 2.29337 8.33337 1.73668C8.66671 1.04081 9.00004 0.692871 10 0.692871H11.3334H13.3334C14.3334 0.692871 14.6667 1.04081 15 1.73668C15.2667 2.29337 15.7778 2.6645 16 2.78048H18C19.1046 2.78048 20 3.65171 20 4.72643V12.9948C20 16.5773 17.0152 19.4813 13.3334 19.4813H10C6.31814 19.4813 3.33337 16.5773 3.33337 12.9948V4.72643C3.33337 3.65171 4.22881 2.78048 5.33337 2.78048H7.33337Z" fill="#42A8C3"/>
<path d="M13.3333 2.63888C13.3333 2.56204 13.2846 2.4833 13.2088 2.40772C12.8243 2.0244 12.2171 1.99023 11.6667 1.99023C11.1162 1.99023 10.4873 1.99442 10.1151 2.38904C10.0447 2.46362 10 2.5469 10 2.63888C10 2.96321 10 3.28753 10.4167 3.28753H12.9167C13.3333 3.28753 13.3333 2.96321 13.3333 2.63888Z" fill="white"/>
<path d="M6 6.50874C6 5.79225 6.59695 5.21143 7.33333 5.21143H16C16.7364 5.21143 17.3333 5.79225 17.3333 6.50874V9.10333C17.3333 11.2528 15.5425 12.9952 13.3333 12.9952H10C7.79087 12.9952 6 11.2528 6 9.10333V6.50874Z" fill="white"/>
<mask id="mask0_161_2376" style="mask-type:alpha" maskUnits="userSpaceOnUse" x="6" y="5" width="12" height="8">
<path d="M6 6.50874C6 5.79225 6.59695 5.21143 7.33333 5.21143H16C16.7364 5.21143 17.3333 5.79225 17.3333 6.50874V9.10333C17.3333 11.2528 15.5425 12.9952 13.3333 12.9952H10C7.79087 12.9952 6 11.2528 6 9.10333V6.50874Z" fill="white"/>
</mask>
<g mask="url(#mask0_161_2376)">
<path d="M16.3336 6.1844C16.3336 5.40602 15.1114 5.21143 14.3337 5.21143H17.3337L17.3336 13.3195C15.1114 13.4276 8.93359 13.3195 10.0003 13.3195C11.3336 13.3195 13.6669 12.3466 14.667 11.6979C15.5818 11.1045 16.3337 10.0763 16.3336 9.10333V6.1844Z" fill="#C3D3DB"/>
</g>
</svg>
