<svg width="22" height="19" viewBox="0 0 22 19" fill="none" xmlns="http://www.w3.org/2000/svg">
<path d="M22.0001 18.8067H1.16481V17.2041H22.0001V18.8067ZM5.78716 0.0715104C6.15841 -0.0736126 6.57987 0.00594382 6.87337 0.275671L13.9476 6.77708L19.0199 4.46195C19.8337 4.09056 20.7923 4.47913 21.118 5.31228C21.4311 6.11373 21.0354 7.01683 20.234 7.3301L3.08154 14.0357C2.61952 14.2163 2.09387 14.0365 1.83973 13.6105L0.0657146 10.6353C-0.0817293 10.3875 0.0289673 10.0664 0.297625 9.96139C0.442978 9.90473 0.606814 9.92451 0.734686 10.0139L2.89819 11.5263L9.84261 8.38163L5.30153 1.6265C4.92887 1.07217 5.16507 0.314724 5.78716 0.0715104Z" fill="white"/>
</svg>
