<svg width="40" height="40" viewBox="0 0 40 40" fill="none" xmlns="http://www.w3.org/2000/svg">
<path d="M36 4H4V36H36V4Z" fill="#D71A21"/>
<path d="M22.9404 23.5182C23.5374 23.5182 24.0977 23.8923 24.0977 24.3718V26.3806C24.0977 26.6626 24.2466 26.9242 24.4854 27.0934H23.4854C23.4791 27.0925 23.2683 27.0586 23.2021 26.6696C23.0902 26.8811 22.8139 27.1003 22.3662 27.1003C21.9036 27.1003 21.5378 26.945 21.4258 26.4235C21.1497 25.1051 22.9562 25.0201 23.1875 24.6393C23.2619 24.5267 23.2837 24.393 23.2764 24.2663C23.2764 24.1464 23.2389 23.9059 22.7314 23.9059C22.2169 23.9062 22.0078 24.4001 22.0078 24.4001V23.779C22.2838 23.6028 22.6048 23.5113 22.9404 23.5182ZM28.418 23.5114C29.4252 23.4973 29.9775 24.2726 29.2393 24.9987C28.6796 25.5486 28.2394 25.4648 27.8887 25.8737C27.8908 25.8922 27.956 26.4269 28.3887 26.614C28.5389 26.6777 29.1577 26.8878 29.5527 26.2399V26.8181C29.5527 26.8181 29.2986 27.1003 28.4854 27.1003C27.5078 27.1003 26.8359 26.3735 26.8359 25.3864C26.8361 24.4136 27.3809 23.5185 28.418 23.5114ZM9.91211 22.6091C11.1429 22.6093 11.2402 23.4059 11.2402 23.4059C10.7254 23.0887 10.2327 23.0954 9.59863 23.0954H8.85938C8.97131 23.2153 8.97168 23.6384 8.97168 23.6384V24.1247H9.48633C9.94149 24.1106 10.3597 24.3503 10.5537 24.738C10.1806 24.5406 9.79228 24.5827 9.48633 24.5827C9.21022 24.5827 8.96387 24.5905 8.96387 24.5905V26.0993C9.00109 26.3319 8.97173 26.6061 9.32227 26.6061H10.4414C11.1429 26.6061 11.3145 26.2751 11.3145 26.2751L11.3066 26.5358C11.3066 26.7332 11.1203 27.0934 10.583 27.0934H8.21777C8.21777 27.0934 7.92676 27.0715 7.92676 26.3806L7.91211 23.6315C7.92696 22.951 7.51284 22.6124 7.50879 22.6091H9.91211ZM15.6123 23.5046C16.0973 23.5046 16.7391 23.7018 16.7393 24.4489V26.3737C16.7467 26.6556 16.8887 26.9164 17.1348 27.0856H16.1348C16.1231 27.0856 15.8442 27.0778 15.8369 26.3737V24.6179C15.8292 24.3925 15.672 24.202 15.4482 24.1315C15.1499 24.0402 14.8362 24.1956 14.7393 24.4704V26.3669C14.7393 26.6559 14.8813 26.9172 15.1201 27.0934H14.1201C14.1115 27.0931 13.8223 27.0753 13.8223 26.3737V24.611C13.8295 24.3432 13.5606 24.1032 13.3145 24.1032C12.8891 24.1032 12.7395 24.3858 12.7246 24.4704V26.3669C12.7246 26.6559 12.8667 26.9242 13.1055 27.0934H12.1055C12.1024 27.0933 11.8066 27.0751 11.8066 26.3737V24.238C11.8066 23.6599 11.4561 23.5251 11.4561 23.5251H12.0605C12.6722 23.5251 12.6949 24.1787 12.6953 24.195C12.7005 24.177 12.8993 23.5048 13.6572 23.5046C14.0602 23.5046 14.5604 23.716 14.7021 24.1813C14.7842 24.0051 14.9784 23.5048 15.6123 23.5046ZM17.8213 23.5182C18.0377 23.5182 18.4785 23.5185 18.4785 24.3151V26.36L18.4854 26.3737C18.4854 26.6557 18.6274 26.9242 18.8662 27.0934H17.8662C17.8567 27.0935 17.5605 27.0882 17.5605 26.3806V24.2302C17.5604 23.6665 17.2168 23.5182 17.2168 23.5182H17.8213ZM19.6279 23.5261C20.0679 23.5262 20.2241 23.688 20.2764 24.2448C20.2764 24.2448 20.426 23.5398 21.0527 23.5397C21.4632 23.5397 21.5605 23.7936 21.5605 23.7936L21.5752 24.4001C21.3141 24.1111 20.8739 24.0472 20.5381 24.2585C20.4038 24.336 20.3144 24.4708 20.292 24.6188V26.3737C20.292 26.6557 20.4331 26.9242 20.6719 27.0934H19.6719C19.66 27.0926 19.374 27.0641 19.374 26.3737V24.238C19.374 23.6724 19.038 23.5319 19.0234 23.5261H19.6279ZM25.9629 23.5251H26.7988V24.0612C26.6197 23.9696 26.4179 23.9206 26.209 23.9206C26.0452 23.9206 26.2236 23.9206 25.9551 23.9206V26.3952C25.9626 26.6701 26.105 26.9313 26.3438 27.0934C26.3438 27.0934 25.8953 27.0934 25.3506 27.0934C25.3372 27.0931 25.0449 27.0771 25.0449 26.402V23.9206L24.4111 23.9138C24.419 23.9101 25.0093 23.6367 25.291 23.4196C25.5522 23.2152 25.7838 22.9756 25.9629 22.7077V23.5251ZM31.1045 23.5046C31.4478 23.5046 31.7835 23.6035 32.0596 23.7868V24.3854C32.0539 24.3728 31.8366 23.8923 31.3506 23.8923C30.8509 23.8923 30.7836 24.1318 30.791 24.2516C30.791 24.315 30.888 24.512 31.0742 24.6179C31.4025 24.8082 31.8204 25.0134 32.0518 25.3024C32.1935 25.4787 32.2757 25.697 32.2832 25.9225C32.2981 26.6063 31.6047 27.0933 30.9258 27.0934C30.59 27.0934 30.2611 27.0087 29.9775 26.8395V26.2048C29.9794 26.2093 30.189 26.7047 30.709 26.7048C31.2164 26.7048 31.4557 26.3736 31.4482 26.1198C31.4407 25.9437 31.3361 25.76 31.0527 25.612C30.8736 25.5203 30.7013 25.4221 30.5371 25.3093C30.1716 25.0484 29.985 24.7801 29.9775 24.3571C29.9629 23.8779 30.5077 23.5046 31.1045 23.5046ZM23.1875 24.985C22.9786 25.2177 22.21 25.3448 22.21 26.2331C22.2101 26.4586 22.3739 26.6843 22.5977 26.6843C23.0005 26.6842 23.0905 26.5575 23.1875 26.487V24.985ZM28.3584 23.7936C27.7083 23.8425 27.8257 25.4529 27.8281 25.485C28.0445 25.2595 28.3732 25.2102 28.627 24.7731C28.7911 24.4839 28.9254 23.7514 28.3584 23.7936ZM18.0078 22.3766C18.2541 22.3766 18.4632 22.5598 18.4707 22.7995C18.4706 23.032 18.277 23.2288 18.0234 23.236C17.7697 23.236 17.5605 23.046 17.5605 22.8063C17.5606 22.5738 17.7618 22.3839 18.0078 22.3766ZM23 18.2311C23.2537 18.4426 23.3959 18.7459 23.4033 19.0632V20.4655C23.4033 20.9731 23.2465 21.5158 22.8213 21.9177C22.3512 22.3618 21.7091 22.6091 21.0449 22.6091H20.3516L19.3145 21.7556L21.0449 21.7419C21.7165 21.7419 22.2024 21.3042 22.374 21.1491C23.3511 20.254 23.3508 19.6897 23.0449 19.3796C22.9843 19.3153 22.6494 18.9919 22.6494 18.9919V17.9138C22.6494 17.9138 22.955 18.1887 23 18.2311ZM15.4336 17.3073C15.4336 17.3073 15.7028 17.3072 15.6953 18.2097V19.0983C15.6955 20.1838 16.7321 20.8252 17.4932 20.8112H19.5752C20.0378 20.8112 20.4259 20.1769 19.9336 19.8102C19.8291 19.7327 19.5898 19.4929 19.5898 19.4929V18.3932C19.5898 18.3932 19.8294 18.6114 19.9189 18.696C20.0608 18.8299 20.3438 19.0209 20.3438 19.486V20.0212C20.3438 20.5709 20.1276 20.7404 19.9336 20.9518C19.8739 21.0153 19.7098 21.1918 19.583 21.2975C19.2397 21.5866 19.0378 21.7136 18.4707 21.7136H17.5234C16.3892 21.7136 15.4561 20.7264 15.4561 19.6618V18.0192C15.456 17.5046 15.0752 17.3073 15.0752 17.3073H15.4336ZM15.874 14.3884C15.9189 14.4025 16.1426 14.4877 16.1426 15.3054C16.1422 15.3288 16.1279 16.2507 16.1279 16.3063C16.1281 16.7222 16.4787 17.194 16.9785 17.194L21.0977 17.1872C21.0978 17.0812 21.2097 16.6867 21.4111 16.4753C21.5233 16.3553 22.4106 15.594 22.5078 15.5163H22.7695C22.7322 15.5515 22.2986 15.9107 22.209 16.0095L22.2021 15.9958C22.0902 16.1086 21.9786 16.3905 21.9785 16.6442V17.1735H22.5449C22.7687 17.1735 23.0603 16.9832 23.1201 16.8845V16.3552C23.2022 16.468 23.3064 16.5743 23.4258 16.6589C23.4855 16.5884 24.0077 15.9962 24.4404 15.989C25.1643 15.9819 25 16.8488 24.709 17.1237C24.6118 17.2155 24.1871 17.5819 24.0527 17.7018C23.7095 18.0121 23.1201 17.8638 23.1201 17.0671C23.1201 17.0671 22.495 17.6297 22.3965 17.7087C22.3006 17.7853 21.986 18.1034 21.9785 18.111V19.5143C21.9784 20.1838 21.7467 20.4095 21.5527 20.614C21.4774 20.6921 20.6793 21.3821 20.5674 21.4597L20.3066 21.4665C20.318 21.4568 20.7777 21.0639 20.8662 20.9733C20.9707 20.8676 21.0977 20.6559 21.0977 20.3034C21.0976 20.2102 21.0832 18.1337 21.083 18.1042H17.4414C16.1728 18.1042 15.9039 16.7782 15.8965 16.4186V15.0866C15.8965 14.868 15.747 14.5012 15.5156 14.3884H15.874ZM17.0605 18.4987C17.5231 18.9357 17.7167 19.0345 17.7168 19.3093C17.7168 19.4996 17.0835 20.0006 17.0459 20.029C17.0011 19.8245 16.8363 19.6052 16.3662 19.154L17.0605 18.4987ZM18.4785 18.4919C18.9485 18.9359 19.1348 19.0346 19.1348 19.3024C19.1347 19.4928 18.5002 19.993 18.4629 20.0212C18.418 19.8169 18.254 19.598 17.7842 19.1472L18.4785 18.4919ZM24.2617 16.7712C24.1423 16.6161 23.687 16.6587 23.5527 16.7927C23.6572 16.9266 23.7765 17.0605 23.9033 17.1804C24.3511 17.5188 24.5602 17.1519 24.2617 16.7712ZM19.9482 10.9831C19.9482 10.9848 19.9345 11.3855 20.3438 11.7653C20.4855 11.8992 20.7841 12.2521 20.6055 12.4284C20.4501 12.5752 20.2063 12.812 20.2021 12.8161C20.1874 12.7328 19.9633 12.5269 19.9561 12.5202V13.2321C19.9489 13.5099 19.845 13.5923 19.8369 13.5983C19.8417 13.6028 20.3965 14.1236 20.3965 14.7975V15.488C20.4039 15.6149 20.3509 15.7489 20.2539 15.8405C20.2013 15.8973 19.6887 16.3892 19.6055 16.4538C19.4861 16.5525 19.3364 16.6093 19.1797 16.6022H17.2471C16.9412 16.6022 16.628 16.3766 16.6279 16.1511C16.6279 16.0952 16.6346 15.4862 16.6348 15.4743C16.7317 15.58 16.8366 15.7066 17.0752 15.7067C17.2691 15.7067 17.4633 15.5659 17.5156 15.5095C17.5679 15.4531 18.9785 14.071 18.9785 14.071C18.9785 14.071 18.3215 13.4934 17.8887 13.2184C17.6798 13.0845 17.3965 13.2532 17.3516 13.4294C17.2184 13.9747 17.3494 14.7974 17.3516 14.8112L16.8213 14.3112C16.605 14.1068 16.613 13.6486 16.874 13.4089C16.9113 13.3666 17.3065 12.957 17.7988 12.9567H18.5684C19.0793 12.957 19.6412 13.437 19.6494 13.444C19.6942 13.3947 19.725 13.3376 19.7324 13.2741C19.7324 13.0237 19.7248 12.3699 19.7246 12.3513C19.3367 11.9847 19.2843 11.6037 19.4707 11.4274C19.8163 11.101 19.9445 10.9864 19.9482 10.9831ZM22.7471 10.9968C22.6874 11.0602 22.3584 11.3217 22.2539 11.4274C22.0601 11.6178 21.9554 11.8786 21.9629 12.1393V14.7341C21.9628 15.0794 21.8214 15.411 21.5752 15.6647C21.4925 15.7639 20.6439 16.474 20.5605 16.5456L20.3145 16.5388C20.3528 16.4956 20.7914 16.1231 20.8662 16.0524C21.0005 15.8903 21.0827 15.6993 21.0977 15.4948V12.7946C21.0977 12.4846 21.2098 12.1819 21.4111 11.9352C21.5007 11.8506 22.4331 11.0534 22.4854 10.9899L22.7471 10.9968ZM17.9189 15.4323C17.725 15.6226 17.6947 15.6645 17.5156 15.7702H19.6943C20.2836 15.7702 20.165 15.425 20.0605 15.2487C19.8441 14.8892 19.1572 14.2263 19.1572 14.2263C19.1447 14.2384 17.9561 15.3972 17.9189 15.4323Z" fill="white"/>
</svg>
