<svg width="76" height="76" viewBox="0 0 76 76" fill="none" xmlns="http://www.w3.org/2000/svg">
<g filter="url(#filter0_dd_147_7420)">
<rect x="16" y="8" width="44" height="44" rx="22" fill="white"/>
<path d="M29.3333 38.1304H46.6666" stroke="#B05D33"/>
<path d="M27.7644 39.1982C27.6342 39.3249 27.6342 39.5303 27.7644 39.6569C27.8946 39.7836 28.1056 39.7836 28.2358 39.6569L27.7644 39.1982ZM32.9025 35.1164C33.0326 34.9897 33.0326 34.7844 32.9025 34.6577C32.7723 34.5311 32.5612 34.5311 32.431 34.6577L32.9025 35.1164ZM28.2358 39.6569L32.9025 35.1164L32.431 34.6577L27.7644 39.1982L28.2358 39.6569Z" fill="#D67B4D"/>
<path d="M27.7644 39.1982C27.6342 39.3249 27.6342 39.5303 27.7644 39.6569C27.8946 39.7836 28.1056 39.7836 28.2358 39.6569L27.7644 39.1982ZM32.9025 35.1164C33.0326 34.9897 33.0326 34.7844 32.9025 34.6577C32.7723 34.5311 32.5612 34.5311 32.431 34.6577L32.9025 35.1164ZM28.2358 39.6569L32.9025 35.1164L32.431 34.6577L27.7644 39.1982L28.2358 39.6569Z" fill="#D67B4D"/>
<path d="M48.2357 39.1982C48.3659 39.3249 48.3659 39.5303 48.2357 39.6569C48.1055 39.7836 47.8945 39.7836 47.7643 39.6569L48.2357 39.1982ZM43.0976 35.1164C42.9675 34.9897 42.9675 34.7844 43.0976 34.6577C43.2278 34.5311 43.4389 34.5311 43.5691 34.6577L43.0976 35.1164ZM47.7643 39.6569L43.0976 35.1164L43.5691 34.6577L48.2357 39.1982L47.7643 39.6569Z" fill="#D67B4D"/>
<path d="M48.2357 39.1982C48.3659 39.3249 48.3659 39.5303 48.2357 39.6569C48.1055 39.7836 47.8945 39.7836 47.7643 39.6569L48.2357 39.1982ZM43.0976 35.1164C42.9675 34.9897 42.9675 34.7844 43.0976 34.6577C43.2278 34.5311 43.4389 34.5311 43.5691 34.6577L43.0976 35.1164ZM47.7643 39.6569L43.0976 35.1164L43.5691 34.6577L48.2357 39.1982L47.7643 39.6569Z" fill="#D67B4D"/>
<path fill-rule="evenodd" clip-rule="evenodd" d="M33.3333 20.7805C33.5555 20.6645 34.0666 20.2934 34.3333 19.7367C34.6666 19.0408 34.9999 18.6929 35.9999 18.6929H37.3333H39.3333C40.3333 18.6929 40.6666 19.0408 40.9999 19.7367C41.2666 20.2934 41.7777 20.6645 41.9999 20.7805H43.9999C45.1045 20.7805 45.9999 21.6517 45.9999 22.7264V30.9948C45.9999 34.5773 43.0151 37.4813 39.3333 37.4813H35.9999C32.318 37.4813 29.3333 34.5773 29.3333 30.9948V22.7264C29.3333 21.6517 30.2287 20.7805 31.3333 20.7805H33.3333Z" fill="#42A8C3"/>
<path d="M39.3333 20.6389C39.3333 20.562 39.2846 20.4833 39.2088 20.4077C38.8243 20.0244 38.2171 19.9902 37.6667 19.9902C37.1162 19.9902 36.4873 19.9944 36.1151 20.389C36.0447 20.4636 36 20.5469 36 20.6389C36 20.9632 36 21.2875 36.4167 21.2875H38.9167C39.3333 21.2875 39.3333 20.9632 39.3333 20.6389Z" fill="white"/>
<path d="M32 24.5087C32 23.7922 32.597 23.2114 33.3333 23.2114H42C42.7364 23.2114 43.3333 23.7922 43.3333 24.5087V27.1033C43.3333 29.2528 41.5425 30.9952 39.3333 30.9952H36C33.7909 30.9952 32 29.2528 32 27.1033V24.5087Z" fill="white"/>
<mask id="mask0_147_7420" style="mask-type:alpha" maskUnits="userSpaceOnUse" x="32" y="23" width="12" height="8">
<path d="M32 24.5087C32 23.7922 32.597 23.2114 33.3333 23.2114H42C42.7364 23.2114 43.3333 23.7922 43.3333 24.5087V27.1033C43.3333 29.2528 41.5425 30.9952 39.3333 30.9952H36C33.7909 30.9952 32 29.2528 32 27.1033V24.5087Z" fill="white"/>
</mask>
<g mask="url(#mask0_147_7420)">
<path d="M42.3337 24.1844C42.3337 23.406 41.1115 23.2114 40.3338 23.2114H43.3338L43.3337 31.3195C41.1115 31.4276 34.9337 31.3195 36.0004 31.3195C37.3337 31.3195 39.667 30.3466 40.6671 29.6979C41.5819 29.1045 42.3338 28.0763 42.3337 27.1033V24.1844Z" fill="#C3D3DB"/>
</g>
</g>
<defs>
<filter id="filter0_dd_147_7420" x="0" y="0" width="76" height="76" filterUnits="userSpaceOnUse" color-interpolation-filters="sRGB">
<feFlood flood-opacity="0" result="BackgroundImageFix"/>
<feColorMatrix in="SourceAlpha" type="matrix" values="0 0 0 0 0 0 0 0 0 0 0 0 0 0 0 0 0 0 127 0" result="hardAlpha"/>
<feOffset dy="8"/>
<feGaussianBlur stdDeviation="8"/>
<feColorMatrix type="matrix" values="0 0 0 0 0.376471 0 0 0 0 0.380392 0 0 0 0 0.439216 0 0 0 0.16 0"/>
<feBlend mode="normal" in2="BackgroundImageFix" result="effect1_dropShadow_147_7420"/>
<feColorMatrix in="SourceAlpha" type="matrix" values="0 0 0 0 0 0 0 0 0 0 0 0 0 0 0 0 0 0 127 0" result="hardAlpha"/>
<feOffset dy="2"/>
<feGaussianBlur stdDeviation="2"/>
<feColorMatrix type="matrix" values="0 0 0 0 0.156863 0 0 0 0 0.160784 0 0 0 0 0.239216 0 0 0 0.04 0"/>
<feBlend mode="normal" in2="effect1_dropShadow_147_7420" result="effect2_dropShadow_147_7420"/>
<feBlend mode="normal" in="SourceGraphic" in2="effect2_dropShadow_147_7420" result="shape"/>
</filter>
</defs>
</svg>
