<svg width="64" height="64" viewBox="0 0 64 64" fill="none" xmlns="http://www.w3.org/2000/svg">
<rect width="64" height="64" rx="16" fill="white"/>
<g clip-path="url(#clip0_161_2434)">
<path d="M20.8334 25H12V52H20.8334V25Z" fill="#E8EAEA"/>
<path d="M52 25H43.1666V52H52V25Z" fill="#E8EAEA"/>
<path d="M12 25.5001H52C52 24.5001 51.1666 23.6667 50.1666 23.6667H13.8334C12.8334 23.6667 12 24.5001 12 25.5001Z" fill="#FFA679"/>
<path d="M43.1667 20.4998H20.8334V51.9998H43.1667V20.4998Z" fill="#F2F2F2"/>
<path d="M44.4167 18.6667H19.5834C19.0834 18.6667 18.6667 19.0834 18.6667 19.5834C18.6667 20.0834 19.0834 20.5001 19.5834 20.5001H44.4167C44.9167 20.5001 45.3334 20.0835 45.3334 19.5835C45.3334 19.0835 44.9167 18.6667 44.4167 18.6667Z" fill="#FFA679"/>
<path d="M18.3334 27.5H14.5V31.75H18.3334V27.5Z" fill="#42A8C3"/>
<path d="M18.3334 33.4167H14.5V37.6667H18.3334V33.4167Z" fill="#42A8C3"/>
<path d="M18.3334 39.3333H14.5V43.5833H18.3334V39.3333Z" fill="#42A8C3"/>
<path d="M18.3334 45.25H14.5V49.5H18.3334V45.25Z" fill="#42A8C3"/>
<path d="M49.5 27.5H45.6666V31.75H49.5V27.5Z" fill="#42A8C3"/>
<path d="M49.5 33.4167H45.6666V37.6667H49.5V33.4167Z" fill="#42A8C3"/>
<path d="M49.5 39.3333H45.6666V43.5833H49.5V39.3333Z" fill="#42A8C3"/>
<path d="M49.5 45.25H45.6666V49.5H49.5V45.25Z" fill="#42A8C3"/>
<path d="M27.5 34.9167H23.3334V39.1667H27.5V34.9167Z" fill="#8ECBDB"/>
<path d="M36.4166 41.5833H27.5V51.9999H36.4166V41.5833Z" fill="#056D8A"/>
<path d="M52 50.25H12V52H52V50.25Z" fill="#ACB3BA"/>
<path d="M27.5 23.0833H23.3334V27.3333H27.5V23.0833Z" fill="#8ECBDB"/>
<path d="M27.5 29H23.3334V33.25H27.5V29Z" fill="#8ECBDB"/>
<path d="M34.0833 23.0833H29.9166V27.3333H34.0833V23.0833Z" fill="#8ECBDB"/>
<path d="M34.0833 29H29.9166V33.25H34.0833V29Z" fill="#8ECBDB"/>
<path d="M34.0833 34.9167H29.9166V39.1667H34.0833V34.9167Z" fill="#8ECBDB"/>
<path d="M40.6668 23.0833H36.5001V27.3333H40.6668V23.0833Z" fill="#8ECBDB"/>
<path d="M40.6668 29H36.5001V33.25H40.6668V29Z" fill="#8ECBDB"/>
<path d="M40.6668 34.9167H36.5001V39.1667H40.6668V34.9167Z" fill="#8ECBDB"/>
</g>
<defs>
<clipPath id="clip0_161_2434">
<rect width="40" height="40" fill="white" transform="translate(12 12)"/>
</clipPath>
</defs>
</svg>
