<svg width="22" height="22" viewBox="0 0 22 22" fill="none" xmlns="http://www.w3.org/2000/svg">
<path d="M15.6516 0C19.1449 0.000247214 21.9998 2.85513 22 6.34838V15.6516C21.9998 19.1449 19.1449 21.9998 15.6516 22H6.34838C2.85513 21.9998 0.000247212 19.1449 0 15.6516V6.34838C0.000247547 2.85513 2.85513 0.000247544 6.34838 0H15.6516ZM6.34838 1.53488C3.70282 1.53513 1.53513 3.70282 1.53488 6.34838V15.6516C1.53513 18.2972 3.70282 20.4649 6.34838 20.4651H15.6516C18.2972 20.4649 20.4649 18.2972 20.4651 15.6516V6.34838C20.4649 3.70282 18.2972 1.53513 15.6516 1.53488H6.34838ZM11 5.88372C13.8256 5.88372 16.1163 8.17436 16.1163 11C16.1163 13.8256 13.8256 16.1163 11 16.1163C8.17436 16.1163 5.88372 13.8256 5.88372 11C5.88372 8.17436 8.17436 5.88372 11 5.88372ZM11 7.4186C9.02205 7.4186 7.4186 9.02205 7.4186 11C7.4186 12.978 9.02205 14.5814 11 14.5814C12.978 14.5814 14.5814 12.978 14.5814 11C14.5814 9.02205 12.978 7.4186 11 7.4186ZM16.1163 3.83721C16.6814 3.83721 17.1395 4.29534 17.1395 4.86047C17.1395 5.42559 16.6814 5.88372 16.1163 5.88372C15.5512 5.88372 15.093 5.42559 15.093 4.86047C15.093 4.29534 15.5512 3.83721 16.1163 3.83721Z" fill="#6E7491"/>
</svg>
