<svg width="32" height="32" viewBox="0 0 32 32" fill="none" xmlns="http://www.w3.org/2000/svg">
<path d="M14.9058 8.40599L15.7188 8.62499L18.1558 12.594L15.3438 11.75L14.9058 8.40599Z" fill="#6E7491"/>
<path d="M5.28075 6.62499L5.71875 6.74999L7.31175 10.938L7.46875 11.406L7.93675 11.531L26.1248 17.156C26.2778 17.1992 26.4207 17.2726 26.545 17.3719C26.6692 17.4712 26.7722 17.5945 26.848 17.7343C26.9238 17.8741 26.9708 18.0278 26.9862 18.1861C27.0016 18.3444 26.9852 18.5042 26.9378 18.656C26.8946 18.8091 26.8212 18.952 26.7218 19.0762C26.6225 19.2004 26.4993 19.3035 26.3595 19.3793C26.2196 19.4551 26.066 19.5021 25.9077 19.5175C25.7494 19.5329 25.5896 19.5164 25.4378 19.469L18.6878 17.437L18.3438 17.344L18.0308 17.469L8.09375 21.625L7.34375 21.312L12.9688 17.437L14.6878 16.25L12.6878 15.656L5.03075 13.344L5.28075 6.62499Z" fill="#6E7491"/>
<path fill-rule="evenodd" clip-rule="evenodd" d="M19.4391 21.4393C19.7204 21.158 20.1019 21 20.4998 21C20.8976 21 21.2791 21.158 21.5604 21.4393C21.8417 21.7206 21.9998 22.1022 21.9998 22.5C21.9998 22.8978 21.8417 23.2794 21.5604 23.5607C21.2791 23.842 20.8976 24 20.4998 24C20.1019 24 19.7204 23.842 19.4391 23.5607C19.1578 23.2794 18.9998 22.8978 18.9998 22.5C18.9998 22.1022 19.1578 21.7206 19.4391 21.4393ZM2.99975 28V26H28.9998V28H2.99975Z" fill="#6E7491"/>
</svg>
