<svg width="64" height="39" viewBox="0 0 64 39" fill="none" xmlns="http://www.w3.org/2000/svg">
<path d="M32.7442 28.4289C32.4073 28.2187 32.3399 27.956 32.4747 27.5093L38.942 10.037C39.0431 9.69542 39.4136 9.45895 39.8852 9.45895H55.1105C55.7168 9.45895 55.9526 9.66915 55.9526 10.1158V11.9024C55.9189 12.244 55.7841 12.5593 55.5483 12.822L38.6389 30.2155C38.3694 30.5308 37.7968 30.6359 37.3589 30.4257L32.7442 28.4289ZM9.03049 28.4289C8.69365 28.2187 8.62628 27.956 8.76102 27.5093L15.2284 10.037C15.3294 9.66915 15.7673 9.43268 16.2389 9.45895H31.3968C32.0031 9.45895 32.2389 9.66915 32.2389 10.1158V11.9024C32.2052 12.244 32.0705 12.5593 31.8347 12.822L14.9926 30.2155C14.7231 30.5308 14.1505 30.6359 13.7126 30.3995L9.03049 28.4289Z" fill="#333333"/>
</svg>
