<svg width="64" height="64" viewBox="0 0 64 64" fill="none" xmlns="http://www.w3.org/2000/svg">
<rect width="64" height="64" rx="16" fill="white"/>
<path d="M29.1875 14H20.1875C19.6053 14 19.1328 14.4725 19.1328 15.0547V20.7029C19.1328 21.2858 19.6053 21.7576 20.1875 21.7576H29.1875C29.7697 21.7576 30.2422 21.2858 30.2422 20.7029V15.0547C30.2422 14.4725 29.7697 14 29.1875 14ZM28.1328 19.6482L24.6588 21.2654L21.2422 19.6482V16.1094H28.1328V19.6482Z" fill="#525C74"/>
<path d="M30.2422 15.0547V20.7029C30.2422 21.2858 29.7697 21.7576 29.1875 21.7576H24.6587V21.3357L28.1328 19.6482V16.1094H24.6587V14H29.1875C29.7697 14 30.2422 14.4725 30.2422 15.0547Z" fill="#444E66"/>
<path d="M34.3203 23.5624L33.8984 46.414C33.8984 48.4376 32.6173 48.664 30.5938 48.664L24.1672 49.9999H21.1958L20.2578 49.6484L19.0864 49.9999H17.6703C15.6467 49.9999 14 48.3532 14 46.3296V26.2765L14.4219 25.2499L14 24.1671V23.3177C14 21.2942 15.6467 19.6467 17.6703 19.6467H19.13L20.1172 20.3281L21.2422 19.6467H24.1672L27.9922 21.1718L31.5078 20.3984C33.0388 25.0538 34.314 21.5988 34.3203 23.5624Z" fill="#68B9CF"/>
<path d="M35.3176 23.3176V46.3293C35.3176 48.353 33.6708 49.9999 31.647 49.9999H24.6588V20.2798L25.7882 19.647H31.6471C33.6709 19.647 35.3176 21.2938 35.3176 23.3176Z" fill="#68B9CF"/>
<path d="M35.3173 24.1671H26.2766V19.6467H24.1672V24.1671H21.2329L21.2394 19.6467H19.13L19.1235 24.1671H14V26.2765H19.1205L19.0864 49.9999H21.1958L21.2299 26.2765H24.1672V49.9999H26.2766V26.2765H35.3173V24.1671Z" fill="#4AB7D3"/>
<path d="M35.3176 24.1646H25.7882V19.647H24.6588V49.9999H25.7882V26.2822H35.3176V24.1646Z" fill="#42A8C3"/>
<path d="M40.1657 28.6824H33.999C32.0014 28.6824 30.3765 30.3073 30.3765 32.3049V34.2588C30.3765 34.8433 30.8508 35.3177 31.4353 35.3177H42.7294C43.3139 35.3177 43.7882 34.8434 43.7882 34.2588V32.3049C43.7882 30.3073 42.1633 28.6824 40.1657 28.6824ZM41.6706 33.2L37.0823 34.2547L32.4941 33.2V32.3049C32.4941 31.4748 33.1689 30.8 33.999 30.8H40.1657C40.9958 30.8 41.6706 31.4748 41.6706 32.3049V33.2H41.6706Z" fill="#525C74"/>
<path d="M43.7883 32.305V34.2589C43.7883 34.8434 43.314 35.3178 42.7295 35.3178H37.0824V34.536L41.6706 33.2001V32.305C41.6706 31.4749 40.9958 30.8 40.1657 30.8H37.0824V28.6824H40.1657C42.1634 28.6824 43.7883 30.3074 43.7883 32.305Z" fill="#444E66"/>
<path d="M50.0001 36.2409V46.959C50.0001 48.6354 48.6356 49.9999 46.9591 49.9999H27.2057C25.5293 49.9999 24.1648 48.6354 24.1648 46.959V36.2409C24.1648 34.5644 25.5293 33.2 27.2057 33.2H46.9591C48.6356 33.2 50.0001 34.5644 50.0001 36.2409Z" fill="#FFCAAF"/>
<path d="M50.0001 36.2409V46.959C50.0001 48.6354 48.6356 49.9999 46.9591 49.9999H37.0824V33.2H46.9591C48.6356 33.2 50.0001 34.5644 50.0001 36.2409Z" fill="#FFBFAB"/>
</svg>
