<svg width="20" height="20" viewBox="0 0 20 20" fill="none" xmlns="http://www.w3.org/2000/svg">
<g clip-path="url(#clip0_435_7124)">
<path d="M19.3 2.63068C19.2618 2.5509 19.1936 2.4895 19.1103 2.45993L12.1959 0.019014C12.0224 -0.0423609 11.832 0.0488056 11.7706 0.222305L10.2 4.66663H9.51302V3.5333C9.513 3.38022 9.47783 3.2292 9.41023 3.09186C9.34263 2.95452 9.2444 2.83453 9.12311 2.74115C9.00182 2.64776 8.86071 2.58347 8.71066 2.55323C8.5606 2.52299 8.4056 2.5276 8.25761 2.56672L0.248416 4.67771V4.68371C0.177823 4.70146 0.115123 4.74214 0.0701599 4.79938C0.0251971 4.85662 0.000518721 4.92718 0 4.99996L0 18.9999C0 19.5522 0.447749 19.9999 0.999998 19.9999H10.3333C10.8856 19.9999 11.3333 19.5522 11.3333 18.9999V15.9754L14.0066 16.9191C14.1803 16.9802 14.3707 16.8893 14.4319 16.7156L19.3143 2.88538C19.3287 2.84407 19.3349 2.80031 19.3325 2.7566C19.33 2.71289 19.319 2.6701 19.2999 2.63068H19.3ZM8.42769 3.20955C8.47703 3.19655 8.52869 3.19503 8.57871 3.2051C8.62873 3.21518 8.67577 3.23658 8.71623 3.26767C8.7567 3.29884 8.78947 3.33888 8.81202 3.38471C8.83456 3.43054 8.84628 3.48093 8.84627 3.53201V4.66663H2.90366L8.42769 3.20955ZM10.6666 18.9999C10.6666 19.0883 10.6315 19.1731 10.569 19.2356C10.5065 19.2981 10.4217 19.3333 10.3333 19.3333H0.999998C0.911593 19.3333 0.826808 19.2981 0.764296 19.2356C0.701784 19.1731 0.666665 19.0883 0.666665 18.9999V5.33329H10.3333C10.4217 5.33329 10.5065 5.36841 10.569 5.43092C10.6315 5.49344 10.6666 5.57822 10.6666 5.66663V18.9999ZM13.4067 6.60233L13.8333 6.40004L14.0366 6.82533L12.417 11.4089C12.3877 11.4923 12.3926 11.5839 12.4306 11.6637L12.7776 12.3896L12.6704 12.6939L12.0093 12.0094C11.9734 11.972 11.9294 11.9435 11.8806 11.9261C11.8318 11.9087 11.7797 11.903 11.7283 11.9093L11.3333 11.9593V11.5126L11.6176 11.3766C11.6974 11.3385 11.7588 11.2703 11.7884 11.187L12.4551 9.3017L13.4067 6.60233ZM14.0353 8.82724L14.7121 9.91466L14.5963 10.2423L13.7866 9.53333L14.0353 8.82724ZM11.3333 10.4729V9.55691L11.6613 9.54324L11.3333 10.4729ZM11.9001 8.86633L11.3333 8.88962V8.44591L12.1494 8.16125L11.9001 8.86633ZM13.9141 16.1793L11.3333 15.2683V12.6312L11.6456 12.5922L12.5667 13.545C12.598 13.5769 12.6353 13.6021 12.6765 13.6193C12.7177 13.6364 12.762 13.6452 12.8066 13.6449C12.8304 13.6451 12.8541 13.6425 12.8773 13.6373C12.9328 13.6252 12.9843 13.5992 13.0268 13.5616C13.0694 13.524 13.1017 13.4762 13.1206 13.4226L13.4539 12.4796C13.4834 12.3962 13.4785 12.3046 13.4402 12.225L13.0916 11.4999L13.5477 10.2083L14.527 11.0667C14.5878 11.12 14.6659 11.1494 14.7468 11.1494C14.7752 11.1494 14.8036 11.1456 14.8311 11.1383C14.8837 11.1245 14.9322 11.098 14.9723 11.0612C15.0124 11.0244 15.0429 10.9783 15.0611 10.927L15.3944 9.98399C15.411 9.93687 15.4168 9.88661 15.4114 9.83693C15.406 9.78726 15.3894 9.73944 15.363 9.69703L14.3196 8.02096L14.7103 6.91471C14.7249 6.87338 14.7312 6.82958 14.7289 6.78581C14.7265 6.74203 14.7156 6.69916 14.6966 6.65962L14.2901 5.80938C14.2712 5.76986 14.2447 5.73445 14.2121 5.70517C14.1796 5.67589 14.1416 5.65331 14.1003 5.63872C14.059 5.62413 14.0152 5.61782 13.9715 5.62015C13.9277 5.62248 13.8849 5.6334 13.8454 5.65229L12.9946 6.05904C12.9552 6.0779 12.9199 6.10436 12.8906 6.13689C12.8614 6.16942 12.8389 6.20739 12.8244 6.24863L12.4333 7.35625L11.3333 7.73996V5.66663C11.3329 5.49604 11.2888 5.32841 11.2051 5.17977C11.1214 5.03113 11.0009 4.90645 10.8553 4.81767L11.4001 3.27292L11.5223 2.92638L12.2891 0.759721L18.5753 2.97863L13.9141 16.1793Z" fill="white"/>
<path d="M16.5439 5.0902L16.7657 4.46145L17.3374 4.66311L17.1155 5.29186L16.5439 5.0902ZM11.972 3.47607L12.194 2.84753L12.7654 3.04933L12.5434 3.67791L11.972 3.47607ZM15.4008 4.6867L15.6228 4.05795L16.1943 4.25978L15.9723 4.88836L15.4008 4.6867ZM13.115 3.87974L13.337 3.25116L13.9083 3.45299L13.6863 4.08157L13.115 3.87974ZM14.2579 4.28291L14.48 3.65432L15.0514 3.85616L14.8294 4.4847L14.2579 4.28291ZM5.51301 6.66782C3.67202 6.66782 2.17969 8.16015 2.17969 10.0011C2.17969 11.8421 3.67202 13.3345 5.51301 13.3345C7.35401 13.3345 8.84634 11.8421 8.84634 10.0011C8.84438 8.16115 7.35318 6.6699 5.51301 6.66782ZM7.92005 8.86148L7.4653 8.76156C7.2653 8.71744 7.06522 8.68248 6.86322 8.65219C6.83297 8.45041 6.79646 8.24962 6.75372 8.05011L6.65359 7.59552C7.20852 7.85967 7.65568 8.30666 7.92005 8.86148ZM2.84631 10.0011C2.84698 9.86489 2.85806 9.72885 2.87969 9.59423L3.70393 9.41081C3.83039 9.38281 3.95768 9.35956 4.08527 9.33756C4.05304 9.77942 4.05304 10.223 4.08527 10.6649C3.95764 10.6429 3.83039 10.6195 3.70393 10.5915L2.87969 10.4082C2.85809 10.2736 2.84695 10.1375 2.84635 10.0011H2.84631ZM4.76172 9.25019C5.26137 9.20559 5.76399 9.20559 6.26364 9.25019C6.30839 9.74983 6.30839 10.2525 6.26364 10.7521C5.76399 10.7969 5.26133 10.7969 4.76168 10.7521C4.71693 10.2525 4.71697 9.74983 4.76172 9.25019ZM6.93926 9.33756C7.06701 9.35956 7.1943 9.38281 7.32059 9.41081L8.14497 9.59423C8.19119 9.86359 8.19119 10.1389 8.14497 10.4082L7.32059 10.5915C7.19434 10.6195 7.06701 10.6429 6.93926 10.6652C6.97165 10.2233 6.97165 9.77952 6.93926 9.33756ZM5.91972 7.36786L6.10301 8.19256C6.13101 8.31886 6.1546 8.44615 6.17676 8.5739C5.73474 8.54151 5.29095 8.54151 4.84893 8.5739C4.87106 8.44615 4.89435 8.31886 4.92268 8.19256L5.10593 7.36786C5.37527 7.32212 5.65039 7.32212 5.91972 7.36786ZM4.37306 7.59311L4.27293 8.04786C4.22898 8.24786 4.19397 8.44794 4.16373 8.64994C3.96195 8.68007 3.76116 8.71648 3.56164 8.7591L3.10689 8.85923C3.37146 8.3049 3.81845 7.8583 4.37302 7.59423L4.37306 7.59311ZM3.10623 11.1398L3.56098 11.2399C3.76098 11.2838 3.96085 11.3188 4.16306 11.3491C4.19319 11.5509 4.2296 11.7517 4.27222 11.9512L4.37235 12.4058C3.8175 12.1419 3.37024 11.6952 3.10556 11.1408L3.10623 11.1398ZM5.10622 12.6325L4.92293 11.8078C4.8946 11.6818 4.87135 11.5542 4.84918 11.4268C5.06993 11.4429 5.2916 11.4538 5.51326 11.4538C5.73493 11.4538 5.95597 11.4429 6.17701 11.4268C6.15489 11.5542 6.13126 11.6818 6.10326 11.8078L5.92001 12.6325C5.65068 12.6782 5.37556 12.6782 5.10622 12.6325ZM6.65289 12.4072L6.75301 11.9525C6.7973 11.7525 6.83197 11.5526 6.86259 11.3504C7.06434 11.3202 7.2651 11.2838 7.46459 11.2412L7.91918 11.1411C7.65505 11.6964 7.20779 12.1438 6.65259 12.4082L6.65289 12.4072ZM2.84635 16.0011H8.17967V16.6678H2.84635V16.0011ZM3.51302 17.3345H7.51301V18.0011H3.51302V17.3345ZM5.17968 14.6678H5.84635V15.3345H5.17968V14.6678ZM3.84635 14.6678H4.51302V15.3345H3.84635V14.6678ZM6.51301 14.6678H7.17968V15.3345H6.51301V14.6678Z" fill="white"/>
</g>
<defs>
<clipPath id="clip0_435_7124">
<rect width="20" height="20" fill="white"/>
</clipPath>
</defs>
</svg>
