<svg width="64" height="64" viewBox="0 0 64 64" fill="none" xmlns="http://www.w3.org/2000/svg">
<rect width="64" height="64" rx="16" fill="white"/>
<path d="M21.239 27.6951H42.761C43.5148 27.6951 44.2612 27.8436 44.9576 28.1321C45.654 28.4206 46.2867 28.8434 46.8196 29.3765C47.3526 29.9096 47.7752 30.5424 48.0636 31.2389C48.3519 31.9353 48.5002 32.6818 48.5 33.4356V40.6086C48.5 40.9893 48.3488 41.3544 48.0796 41.6236C47.8103 41.8928 47.4452 42.0441 47.0645 42.0441H16.9355C16.7469 42.0443 16.5602 42.0073 16.3859 41.9352C16.2117 41.8631 16.0533 41.7574 15.92 41.6241C15.7867 41.4907 15.6809 41.3324 15.6089 41.1581C15.5368 40.9839 15.4998 40.7971 15.5 40.6086V33.4341C15.5 31.912 16.1046 30.4523 17.1809 29.376C18.2572 28.2997 19.7169 27.6951 21.239 27.6951Z" fill="#FF808C"/>
<path d="M48.3201 32.0001C48.002 30.7676 47.2833 29.6759 46.277 28.8966C45.2707 28.1173 44.0338 27.6946 42.7611 27.6951H21.2406C19.9675 27.6943 18.7303 28.1168 17.7237 28.8961C16.7171 29.6755 15.9982 30.7674 15.6801 32.0001H48.3201Z" fill="#FFBFC5"/>
<path d="M18.3709 34.8695H22.6759L21.9574 32H15.6829C15.586 32.3833 15.5273 32.7752 15.5074 33.17C15.7851 33.6872 16.1987 34.1188 16.7035 34.4183C17.2084 34.7178 17.7839 34.8738 18.3709 34.8695ZM42.0439 32L41.3269 34.8695H45.6319C46.2194 34.8724 46.7967 34.7155 47.3018 34.4156C47.807 34.1157 48.2212 33.6841 48.4999 33.167C48.4785 32.773 48.4182 32.3821 48.3199 32H42.0439Z" fill="#FFEF5E"/>
<path d="M20.522 27.6949L21.557 21.4849C21.6682 20.8134 22.0148 20.2033 22.5348 19.7641C23.0549 19.3249 23.7143 19.0852 24.395 19.0879H39.614C40.2933 19.0874 40.9508 19.3283 41.469 19.7676C41.9871 20.2069 42.3324 20.8161 42.443 21.4864L43.478 27.6964L20.522 27.6949Z" fill="#66E1FF"/>
<path d="M37.022 19.0864H24.395C23.7146 19.0849 23.0559 19.3255 22.5368 19.7652C22.0176 20.205 21.6719 20.8151 21.5615 21.4864L20.522 27.6964H28.412L37.022 19.0864Z" fill="#C2F3FF"/>
<path d="M20.522 27.695L21.557 21.485C21.6673 20.8144 22.0124 20.2049 22.5306 19.7652C23.0488 19.3256 23.7064 19.0845 24.386 19.085H39.611C40.2906 19.0841 40.9484 19.3248 41.4669 19.7642C41.9854 20.2035 42.3308 20.8129 42.4415 21.4835L43.4765 27.6935M21.239 27.695H42.761C43.5148 27.695 44.2612 27.8435 44.9576 28.132C45.654 28.4205 46.2867 28.8433 46.8196 29.3764C47.3526 29.9095 47.7753 30.5423 48.0636 31.2388C48.3519 31.9352 48.5002 32.6817 48.5 33.4355V40.6085C48.5 40.9892 48.3488 41.3543 48.0796 41.6235C47.8103 41.8927 47.4452 42.044 47.0645 42.044H16.9355C16.7469 42.0442 16.5602 42.0072 16.3859 41.9351C16.2117 41.863 16.0533 41.7573 15.92 41.624C15.7867 41.4906 15.6809 41.3323 15.6089 41.158C15.5368 40.9838 15.4998 40.797 15.5 40.6085V33.434C15.5 31.9119 16.1046 30.4521 17.1809 29.3759C18.2572 28.2996 19.7169 27.695 21.239 27.695Z" stroke="#191919" stroke-linecap="round" stroke-linejoin="round"/>
<path d="M43.478 27.6949L45.6305 24.8254H47.783C47.9732 24.8262 48.1553 24.9022 48.2896 25.0368C48.424 25.1715 48.4996 25.3538 48.5 25.5439V26.9779C48.4992 27.1679 48.4234 27.3498 48.2891 27.4841C48.1548 27.6184 47.9729 27.6941 47.783 27.6949H43.478ZM20.522 27.6949L18.3695 24.8254H16.217C16.0268 24.8262 15.8447 24.9022 15.7103 25.0368C15.576 25.1715 15.5004 25.3538 15.5 25.5439V26.9779C15.5008 27.1679 15.5766 27.3498 15.7109 27.4841C15.8452 27.6184 16.0271 27.6941 16.217 27.6949H20.522Z" fill="#FF808C" stroke="#191919" stroke-linecap="round" stroke-linejoin="round"/>
<path d="M22.673 42.0439V43.4779C22.6732 43.6664 22.6362 43.853 22.5642 44.0272C22.4923 44.2013 22.3867 44.3596 22.2535 44.4929C22.1203 44.6262 21.9622 44.732 21.7881 44.8041C21.614 44.8763 21.4274 44.9134 21.239 44.9134H18.3695C17.9887 44.9134 17.6236 44.7622 17.3544 44.493C17.0852 44.2238 16.934 43.8587 16.934 43.4779V42.0439H22.673ZM47.066 42.0439V43.4779C47.0662 43.6665 47.0292 43.8533 46.9571 44.0275C46.885 44.2018 46.7793 44.3601 46.646 44.4934C46.5126 44.6268 46.3543 44.7325 46.18 44.8046C46.0058 44.8766 45.819 44.9136 45.6305 44.9134H42.761C42.3805 44.913 42.0158 44.7616 41.7469 44.4925C41.478 44.2233 41.327 43.8584 41.327 43.4779V42.0439H47.066Z" fill="#808080" stroke="#191919" stroke-linecap="round" stroke-linejoin="round"/>
<path d="M48.32 32H42.044L41.327 34.8695H45.632C46.2192 34.8727 46.7962 34.7163 47.3013 34.4169C47.8065 34.1176 48.2208 33.6866 48.5 33.17M15.68 32H21.956L22.6745 34.8695H18.3695C17.7817 34.8746 17.2038 34.719 16.698 34.4195C16.1923 34.1199 15.778 33.6879 15.5 33.17" stroke="#191919" stroke-linecap="round" stroke-linejoin="round"/>
<path d="M41.327 34.8695L38.3975 36.0395C37.9528 36.2002 37.4856 36.2898 37.013 36.305H26.261C25.7908 36.2874 25.3286 36.1779 24.9005 35.9825L22.6745 34.8695L21.9575 32H42.044L41.327 34.8695Z" fill="#808080" stroke="#191919" stroke-linecap="round" stroke-linejoin="round"/>
<path d="M21.9575 42.0441L23.3915 39.1746H40.61L42.044 42.0441H21.9575Z" fill="#B2B2B2" stroke="#191919" stroke-linecap="round" stroke-linejoin="round"/>
<path d="M40.61 39.1746H45.6305M18.3695 39.1746H23.3915" stroke="#191919" stroke-linecap="round" stroke-linejoin="round"/>
</svg>
