<svg width="64" height="64" viewBox="0 0 64 64" fill="none" xmlns="http://www.w3.org/2000/svg">
<rect width="64" height="64" rx="16" fill="white"/>
<g clip-path="url(#clip0_124_28848)">
<path d="M50 46C50 47.0609 49.5786 48.0783 48.8284 48.8284C48.0783 49.5786 47.0609 50 46 50H18C16.9391 50 15.9217 49.5786 15.1716 48.8284C14.4214 48.0783 14 47.0609 14 46V18C14 16.9391 14.4214 15.9217 15.1716 15.1716C15.9217 14.4214 16.9391 14 18 14H46C47.0609 14 48.0783 14.4214 48.8284 15.1716C49.5786 15.9217 50 16.9391 50 18V46Z" fill="#F4900C"/>
<path d="M30.746 20.789C30.746 20.295 31.136 20.009 31.76 20.009C32.384 20.009 32.774 20.295 32.774 20.789V23.727H39.899C41.59 23.727 42.291 24.403 42.291 26.015V35.766C42.291 37.377 41.59 38.08 39.899 38.08H32.774V43.357C32.774 43.877 32.384 44.136 31.76 44.136C31.136 44.136 30.746 43.876 30.746 43.357V38.08H24.09C22.4 38.08 21.698 37.377 21.698 35.766V26.015C21.698 24.403 22.4 23.727 24.09 23.727H30.746V20.789ZM24.765 25.546C23.907 25.546 23.673 25.806 23.673 26.508V29.758H30.745V25.546H24.765ZM23.673 31.579V35.297C23.673 36 23.907 36.26 24.765 36.26H30.746V31.579H23.673ZM40.315 29.759V26.509C40.315 25.807 40.054 25.547 39.222 25.547H32.774V29.759H40.315ZM39.222 36.26C40.054 36.26 40.315 36 40.315 35.297V31.579H32.774V36.26H39.222Z" fill="white"/>
</g>
<defs>
<clipPath id="clip0_124_28848">
<rect width="36" height="36" fill="white" transform="translate(14 14)"/>
</clipPath>
</defs>
</svg>
