<svg width="40" height="40" viewBox="0 0 40 40" fill="none" xmlns="http://www.w3.org/2000/svg">
<path fill-rule="evenodd" clip-rule="evenodd" d="M4 34V29H8.69615V30.3034H5.71301V30.7995H8.70571V32.0581H5.71638V32.6928H8.69531V34H4ZM11.0409 34L9.3582 29H11.1516L12.0488 32.017L12.9938 29H14.7987L13.0478 34H11.0409ZM16.5404 32.1758H17.5686L17.0625 30.541L16.5404 32.1758ZM14.1401 34L16.0057 29H18.1413L19.9501 34H18.1222L17.9022 33.292H16.1925L15.9658 34H14.1401ZM23.6937 32.1758H24.7216L24.2155 30.541L23.6937 32.1758ZM21.2936 34L23.1589 29H25.2946L27.1034 34H25.2754L25.0554 33.292H23.3458L23.119 34H21.2936ZM28.2423 34V29H29.9879V34H28.2423ZM32.6142 31.1059H33.6845C33.8337 31.1046 33.9695 31.0498 34.0698 30.9502C34.1707 30.8498 34.2184 30.7221 34.2063 30.5869C34.1954 30.4657 34.1372 30.3582 34.0383 30.276C33.9326 30.1916 33.8084 30.1482 33.682 30.1518H32.6139V31.1059H32.6142ZM32.6032 34H30.8975V29H34.2142C34.5936 28.9986 34.9398 29.0863 35.2635 29.266C35.6257 29.4612 35.8617 29.783 35.9194 30.162C35.9952 30.6006 35.8469 31.0306 35.5094 31.3518C35.3534 31.5017 35.1674 31.6 34.9474 31.6486C35.3321 31.7321 35.628 32.0036 35.7156 32.3535C35.7451 32.4792 35.7645 32.5949 35.7755 32.7226C35.805 33.0718 35.8353 33.3885 35.8727 33.7364C35.8831 33.8367 35.9255 33.9257 36 34H34.2892C34.2176 33.9039 34.1709 33.784 34.1552 33.6556C34.1161 33.3466 34.0839 33.0364 34.0585 32.7254C34.0476 32.5963 33.9872 32.4812 33.8835 32.3922C33.7792 32.3032 33.6497 32.2553 33.5069 32.2532L32.6029 32.2519V34H32.6032Z" fill="#409E54"/>
<g clip-path="url(#clip0_0_85)">
<path fill-rule="evenodd" clip-rule="evenodd" d="M34.5114 6.04086H35.9999L28.1608 25.9999H26.5469C28.9465 19.2691 31.6029 12.6123 34.5114 6.04086Z" fill="#D06537"/>
<path fill-rule="evenodd" clip-rule="evenodd" d="M19.959 11.3345L20.5963 13.7934L21.9787 13.0452L22.0763 13.1086L21.5332 14.4271L23.8066 14.8429L23.7952 15.1024L21.5451 15.5389L22.3158 17.0434L22.0939 17.1742L20.5753 16.4943L19.959 19.3013H19.8251L19.1901 16.4943L17.7413 17.2043L17.5682 17.0434L18.3286 15.5489L15.8573 15.1024L15.8164 14.853L18.3111 14.4482L17.7294 13.1599L17.8259 13.0824L19.261 13.7934L19.8251 11.3345H19.959Z" fill="#409E54"/>
<path fill-rule="evenodd" clip-rule="evenodd" d="M12.085 17.9315L21.1776 7.78632L22.6116 8.36109C23.1161 8.50591 23.5605 8.67739 24.0247 8.90568C25.291 9.54487 26.3413 10.4725 27.0669 11.5925C27.2485 11.864 27.3938 12.121 27.5288 12.4121C27.6775 12.732 27.7938 13.0297 27.8977 13.3625C28.8794 16.5552 27.2706 19.9847 24.0241 21.619C23.5718 21.8408 23.1428 22.0148 22.6576 22.1712C20.819 22.7731 18.9134 22.7731 17.0748 22.1712C16.6034 22.0204 16.1468 21.8357 15.7094 21.619C14.4162 20.9573 13.4174 20.0762 12.6661 18.9327C12.4502 18.6095 12.2561 18.2752 12.085 17.9315ZM14.213 18.1986L13.0224 18.1976C13.1064 18.3529 13.191 18.4912 13.2908 18.6396C13.6275 19.1611 14.0442 19.6387 14.5291 20.0586L14.6931 20.1959L14.7754 20.2628H16.3603C15.8275 19.6379 15.4127 18.9404 15.1323 18.1976L14.213 18.1986ZM13.8078 17.9522L15.0472 17.9627C14.7723 17.1776 14.6183 16.3631 14.5892 15.5414L12.7359 17.6132C12.7915 17.7339 12.8431 17.844 12.9021 17.9637L13.8078 17.9522ZM16.072 15.3453L14.7254 15.37C14.7532 16.2661 14.9019 17.0782 15.1942 17.9366L17.5151 17.92C17.3705 17.0672 17.296 16.2062 17.2921 15.3438L16.072 15.3453ZM15.8138 20.4695H15.0648C15.4064 20.7229 15.7406 20.9271 16.1288 21.1207C16.6654 21.4251 17.2495 21.6581 17.8624 21.8121C18.2767 21.9278 18.6569 22.0223 19.0785 22.1128L17.7217 21.4717C17.5668 21.4064 17.4201 21.3266 17.2842 21.2338C17.131 21.1297 17.0004 21.0236 16.8699 20.8979C16.7293 20.7639 16.6003 20.6207 16.484 20.4695H15.8138ZM17.1026 20.21L18.1621 20.2191C18.0248 19.8977 17.9091 19.5694 17.8153 19.236C17.713 18.8792 17.6272 18.5188 17.5583 18.1558L15.2617 18.1815C15.4782 18.7011 15.7499 19.2014 16.0732 19.6755C16.202 19.8756 16.3314 20.0516 16.4869 20.2362L17.1026 20.21ZM19.7924 20.4564H18.3902C18.4997 20.7159 18.6183 20.9457 18.7693 21.1891C18.9299 21.4199 19.1063 21.6135 19.3254 21.8031C19.4241 21.8865 19.5195 21.9554 19.6313 22.0238C19.6823 22.0545 19.7323 22.0786 19.7896 22.0983L19.7924 20.4564ZM19.3628 21.9348C19.2151 21.8123 19.0797 21.6785 18.9582 21.535C18.8225 21.3778 18.6996 21.2121 18.5905 21.0392C18.47 20.8503 18.3624 20.6552 18.2682 20.4549L16.6299 20.4775C16.8183 20.6817 17.0067 20.8547 17.232 21.0267C17.4357 21.183 17.6377 21.3078 17.8738 21.4214L19.2726 22.0912C19.3946 22.1274 19.5155 22.1355 19.6403 22.1128C19.5393 22.0647 19.446 22.0049 19.3628 21.9348ZM19.9422 10.0587H21.3445C21.2394 9.80646 21.1131 9.56154 20.9665 9.32608C20.8908 9.19963 20.8041 9.07858 20.7072 8.96402C20.6691 8.91713 20.6245 8.87471 20.5744 8.8378L19.9405 9.55488L19.9422 10.0587ZM19.9547 22.0822C20.0847 22.0203 20.1953 21.9524 20.3071 21.8679C20.4314 21.7744 20.5352 21.6814 20.6397 21.5702C20.9374 21.247 21.172 20.8819 21.3337 20.4901H19.9428L19.9547 22.0822ZM20.1108 22.0998C20.2271 22.1224 20.3389 22.1194 20.4541 22.0907C20.5137 22.0771 20.567 22.0585 20.6226 22.0319L21.896 21.4123C22.2037 21.2705 22.4858 21.0888 22.7331 20.8733C22.8717 20.755 23.002 20.6294 23.1235 20.4971L21.4546 20.4911C21.3428 20.732 21.2242 20.9447 21.0755 21.17C20.948 21.3672 20.8008 21.5538 20.6357 21.7276C20.5361 21.8339 20.4208 21.9278 20.2929 22.0067C20.2328 22.0429 20.176 22.0721 20.1108 22.0998ZM20.7736 8.91876C21.0539 9.28987 21.2713 9.64892 21.4676 10.0598L23.1059 10.0376C22.9245 9.83873 22.723 9.65493 22.5038 9.4885C22.3073 9.33612 22.092 9.20387 21.862 9.09426L20.7969 8.58385L20.6272 8.76991C20.6851 8.81517 20.7316 8.86244 20.7736 8.91876ZM21.2576 21.966C22.0931 21.81 22.893 21.5307 23.624 21.1398C24.0279 20.9378 24.4098 20.7029 24.7646 20.4383L23.2705 20.4886C23.0428 20.7705 22.772 21.0231 22.4658 21.2389C22.3296 21.3339 22.1841 21.418 22.0311 21.4903L20.8332 22.05C20.9818 22.0329 21.1146 22.0062 21.2576 21.966ZM22.6321 10.3051L21.5726 10.2956C21.7133 10.6275 21.8228 10.9352 21.9205 11.2792C22.0249 11.6473 22.1043 11.9852 22.1764 12.3598L24.473 12.3342C24.2564 11.8147 23.9846 11.3147 23.6615 10.8407C23.537 10.6461 23.3988 10.4587 23.2478 10.2795L22.6321 10.3051ZM23.4135 18.1759L22.1645 18.1905C22.0499 18.8965 21.8478 19.5891 21.5618 20.2558H22.3387L23.254 20.2261C23.7928 19.6115 24.2046 18.9172 24.4701 18.1754H23.4135V18.1759ZM23.283 17.9562L24.5598 17.9325C24.8458 17.0782 24.9854 16.2686 25.0018 15.378L22.4306 15.38C22.4273 16.2424 22.3528 17.1034 22.2076 17.9562H23.283ZM23.9214 10.0457H24.6704C24.3399 9.7992 23.9836 9.58114 23.6064 9.39447C23.0699 9.08987 22.4858 8.85674 21.8728 8.70253C21.5497 8.61161 21.2232 8.53061 20.8939 8.45965L20.8587 8.50289L22.0135 9.04397C22.173 9.11136 22.3103 9.18628 22.451 9.28182C22.6043 9.38592 22.7348 9.49152 22.8653 9.61723C23.0106 9.75602 23.1314 9.88979 23.2523 10.0457H23.9214ZM24.0808 20.2472H24.9831L25.1483 20.1125L25.2294 20.0426C25.711 19.62 26.1273 19.1428 26.4676 18.6235C26.5675 18.4751 26.6515 18.3379 26.7372 18.1815H24.6279C24.3559 18.9274 23.9404 19.6261 23.3999 20.2467H24.0808V20.2472ZM25.9274 12.5625L24.688 12.5514C24.9848 13.4123 25.1312 14.229 25.1488 15.1291L27.484 15.1286C27.464 14.2395 27.2424 13.3631 26.8325 12.5514L25.9274 12.5625ZM25.5217 12.3161L26.7122 12.3171C26.6307 12.1662 26.5412 12.0189 26.4438 11.8756C26.1073 11.354 25.6906 10.8764 25.2056 10.4565L25.0416 10.3187L24.9593 10.2523H23.3755C23.9074 10.8775 24.3217 11.5747 24.6023 12.3171L25.5217 12.3161ZM25.6471 17.9481H26.8564C27.0158 17.6213 27.1378 17.3145 27.2456 16.9721C27.4085 16.434 27.4919 15.9281 27.5084 15.371H25.1732C25.1634 16.2456 25.0082 17.1142 24.7124 17.9486H25.6471V17.9481ZM22.4249 14.5387L22.2133 14.5C22.1821 13.8633 22.1099 13.2286 21.9971 12.5992L20.2725 12.5987L20.2095 12.3493L21.984 12.3583L21.8909 11.8595C21.793 11.3742 21.6586 10.8952 21.4886 10.4258L21.4477 10.3157L21.4398 10.2941H19.9422L19.9411 11.3219L19.9297 11.2782H19.797L19.7924 11.3003V10.2579L19.2925 10.2614L17.8448 11.8736C17.8136 12.028 17.7881 12.1683 17.7626 12.3231L19.5558 12.3246L19.4951 12.5821L17.716 12.5831C17.6159 13.2227 17.5545 13.8666 17.5322 14.5121L17.3182 14.5463C17.3472 13.8594 17.4124 13.2368 17.5265 12.557L17.2916 12.5575L14.9774 15.1422L16.3206 15.1341L17.5032 15.3494C17.5056 15.8627 17.5343 16.3756 17.5895 16.8866L17.5384 16.9867L17.6093 17.0525C17.6445 17.3492 17.6848 17.6193 17.737 17.9139L19.4951 17.9149L19.5507 18.1644L17.7506 18.1543L17.8448 18.6531C17.9459 19.153 18.0718 19.6031 18.2461 20.0873L18.2869 20.1974L18.2949 20.2191L19.7924 20.2181L19.7936 19.2289L19.797 19.2445H19.9297L19.9417 19.1922V20.2538H21.4279C21.6827 19.5593 21.8535 18.9101 21.971 18.1885L20.1618 18.1865L20.2197 17.929L22.0175 17.928C22.0629 17.6374 22.0975 17.3724 22.1282 17.0792L22.2853 16.9857L22.1577 16.7332C22.194 16.2726 22.211 15.8527 22.2087 15.3911L21.9658 15.3931L23.1297 15.1678L23.6626 15.1673L25.0081 15.1432C24.9848 14.2727 24.8271 13.4091 24.5394 12.5766L22.2184 12.5932C22.3319 13.2595 22.396 13.8679 22.4249 14.5387Z" fill="#D06537"/>
<path fill-rule="evenodd" clip-rule="evenodd" d="M23.3583 6.00013L33.5961 6.00365L25.921 25.6414C25.8791 25.7478 25.8002 25.8398 25.6958 25.9042C25.5913 25.9686 25.4666 26.0021 25.3394 25.9999H5L22.3857 6.4175C22.4997 6.28545 22.6471 6.17891 22.816 6.10643C22.9849 6.03395 23.1707 5.99754 23.3583 6.00013ZM12.2568 18.0995L21.3495 7.95425L22.6637 8.34698C23.1682 8.49231 23.6125 8.66328 24.0756 8.89158C25.3689 9.55384 26.3676 10.4349 27.119 11.5784C27.3005 11.8499 27.4447 12.1069 27.5809 12.398C27.7296 12.7178 27.8447 13.0155 27.9497 13.3489C28.9309 16.5421 27.3227 19.9706 24.075 21.6059C23.6373 21.822 23.1807 22.0066 22.7097 22.158C20.8711 22.759 18.9655 22.759 17.1269 22.158C16.6554 22.0069 16.1984 21.8222 15.7604 21.6059C14.4683 20.9441 13.4695 20.0621 12.7171 18.9186C12.5415 18.6558 12.3877 18.382 12.2568 18.0995Z" fill="#409E54"/>
</g>
<defs>
<clipPath id="clip0_0_85">
<rect width="31" height="20" fill="white" transform="translate(5 6)"/>
</clipPath>
</defs>
</svg>
