<svg width="76" height="24" viewBox="0 0 76 24" fill="none" xmlns="http://www.w3.org/2000/svg">
<g clip-path="url(#clip0_0_6)">
<path d="M32.9329 23.6537H26.7764L30.6271 0.421051H36.7833L32.9329 23.6537Z" fill="white"/>
<path d="M55.2511 0.988984C54.0368 0.518904 52.1107 -0.00012207 49.7292 -0.00012207C43.6494 -0.00012207 39.3681 3.16331 39.3418 7.68606C39.2913 11.0229 42.4071 12.8763 44.7375 13.9889C47.1194 15.1259 47.9291 15.8679 47.9291 16.8813C47.9048 18.4378 46.0044 19.1552 44.2318 19.1552C41.7739 19.1552 40.4569 18.7853 38.4554 17.9194L37.6447 17.5482L36.7832 22.7634C38.2271 23.4053 40.8874 23.9749 43.6494 23.9999C50.1093 23.9999 54.3149 20.8854 54.3647 16.0657C54.3893 13.421 52.744 11.3945 49.1969 9.73851C47.0436 8.67549 45.7249 7.95871 45.7249 6.87105C45.7502 5.88228 46.8403 4.86952 49.271 4.86952C51.2725 4.81992 52.743 5.28934 53.857 5.75909L54.4138 6.00579L55.2511 0.988984Z" fill="white"/>
<path d="M63.4334 15.4232C63.9404 14.0885 65.8913 8.92289 65.8913 8.92289C65.8658 8.97249 66.3973 7.56357 66.7014 6.69863L67.1316 8.7005C67.1316 8.7005 68.2975 14.2616 68.5506 15.4232C67.5885 15.4232 64.6494 15.4232 63.4334 15.4232ZM71.0328 0.421051H66.2708C64.8022 0.421051 63.6865 0.84087 63.0529 2.34867L53.9082 23.6534H60.3681C60.3681 23.6534 61.4316 20.7859 61.6602 20.1683C62.3689 20.1683 68.653 20.1683 69.5647 20.1683C69.7414 20.984 70.2993 23.6534 70.2993 23.6534H75.9996L71.0328 0.421051Z" fill="white"/>
<path d="M21.6345 0.421051L15.6052 16.2635L14.9464 13.0505C13.8317 9.34303 10.3358 5.315 6.43457 3.31216L11.9572 23.629H18.4675L28.1445 0.421051H21.6345Z" fill="white"/>
<path d="M10.0066 0.421051H0.101335L0 0.890473C7.72672 2.81842 12.844 7.46567 14.9464 13.0514L12.7931 2.37397C12.4386 0.890145 11.3492 0.469997 10.0066 0.421051Z" fill="white"/>
</g>
<defs>
<clipPath id="clip0_0_6">
<rect width="76" height="24" fill="white"/>
</clipPath>
</defs>
</svg>
