<svg width="88" height="35" viewBox="0 0 88 35" fill="none" xmlns="http://www.w3.org/2000/svg">
<path d="M31.4478 7.15956C30.6553 6.3667 29.7144 5.73775 28.6788 5.30864C27.6431 4.87952 26.5331 4.65866 25.4121 4.65866C24.2911 4.65866 23.1811 4.87952 22.1454 5.30864C21.1098 5.73775 20.1689 6.3667 19.3764 7.15956L17.7317 8.80426L16.087 7.15956C14.4862 5.55879 12.3151 4.65949 10.0513 4.65949C7.78742 4.65949 5.61631 5.55879 4.01553 7.15956C2.41476 8.76034 1.51546 10.9315 1.51546 13.1953C1.51546 15.4591 2.41476 17.6302 4.01553 19.231L5.66023 20.8757L17.7317 32.9472L29.8031 20.8757L31.4478 19.231C32.2407 18.4385 32.8696 17.4976 33.2987 16.462C33.7279 15.4263 33.9487 14.3163 33.9487 13.1953C33.9487 12.0743 33.7279 10.9642 33.2987 9.92862C32.8696 8.89299 32.2407 7.95205 31.4478 7.15956V7.15956Z" stroke="#484848" stroke-width="3" stroke-linecap="round" stroke-linejoin="round"/>
<path d="M81.7701 10.945C84.374 10.945 86.4849 8.83409 86.4849 6.2302C86.4849 3.62632 84.374 1.51546 81.7701 1.51546C79.1662 1.51546 77.0554 3.62632 77.0554 6.2302C77.0554 8.83409 79.1662 10.945 81.7701 10.945Z" stroke="#484848" stroke-width="3" stroke-linecap="round" stroke-linejoin="round"/>
<path d="M62.9108 21.9461C65.5147 21.9461 67.6255 19.8352 67.6255 17.2313C67.6255 14.6274 65.5147 12.5166 62.9108 12.5166C60.3069 12.5166 58.196 14.6274 58.196 17.2313C58.196 19.8352 60.3069 21.9461 62.9108 21.9461Z" stroke="#484848" stroke-width="3" stroke-linecap="round" stroke-linejoin="round"/>
<path d="M81.7701 32.9471C84.374 32.9471 86.4849 30.8362 86.4849 28.2324C86.4849 25.6285 84.374 23.5176 81.7701 23.5176C79.1662 23.5176 77.0554 25.6285 77.0554 28.2324C77.0554 30.8362 79.1662 32.9471 81.7701 32.9471Z" stroke="#484848" stroke-width="3" stroke-linecap="round" stroke-linejoin="round"/>
<path d="M66.981 19.6043L77.7149 25.8592" stroke="#484848" stroke-width="3" stroke-linecap="round" stroke-linejoin="round"/>
<path d="M77.6991 8.60324L66.981 14.8581" stroke="#484848" stroke-width="3" stroke-linecap="round" stroke-linejoin="round"/>
</svg>
