<svg width="32" height="32" viewBox="0 0 32 32" fill="none" xmlns="http://www.w3.org/2000/svg">
<path d="M25.906 6.78103C26.031 6.77303 26.16 6.77703 26.281 6.81303C26.4703 6.86581 26.6394 6.97435 26.7661 7.12452C26.8929 7.27469 26.9716 7.45954 26.9918 7.65503C27.0121 7.85051 26.9731 8.04757 26.8799 8.22057C26.7866 8.39357 26.6434 8.5345 26.469 8.62503L20.875 11.656L20.562 11.812L20.437 12.156L16.719 21.094L16.281 21.281L17.344 15.375L17.719 13.344L15.906 14.313L9.594 17.719L5.625 13.406L5.781 13.312L9.438 14.938L9.906 15.156L10.312 14.906L25.532 6.87503C25.6483 6.81661 25.7759 6.78452 25.906 6.78103Z" fill="#6E7491"/>
<path d="M13.375 8.09403L17.219 9.03103L15.156 10.094L12.906 8.37503L13.375 8.09403Z" fill="#6E7491"/>
<path fill-rule="evenodd" clip-rule="evenodd" d="M3 28V26H29V28H3Z" fill="#6E7491"/>
</svg>
