<svg width="20" height="20" viewBox="0 0 20 20" fill="none" xmlns="http://www.w3.org/2000/svg">
<path d="M15.7667 4.175C15.6 3.68334 15.1333 3.33334 14.5833 3.33334H5.41667C4.86667 3.33334 4.40833 3.68334 4.23333 4.175L2.5 9.16667V15.8333C2.5 16.2917 2.875 16.6667 3.33333 16.6667H4.16667C4.625 16.6667 5 16.2917 5 15.8333V15H15V15.8333C15 16.2917 15.375 16.6667 15.8333 16.6667H16.6667C17.125 16.6667 17.5 16.2917 17.5 15.8333V9.16667L15.7667 4.175ZM5.41667 12.5C4.725 12.5 4.16667 11.9417 4.16667 11.25C4.16667 10.5583 4.725 10 5.41667 10C6.10833 10 6.66667 10.5583 6.66667 11.25C6.66667 11.9417 6.10833 12.5 5.41667 12.5ZM14.5833 12.5C13.8917 12.5 13.3333 11.9417 13.3333 11.25C13.3333 10.5583 13.8917 10 14.5833 10C15.275 10 15.8333 10.5583 15.8333 11.25C15.8333 11.9417 15.275 12.5 14.5833 12.5ZM4.16667 8.33334L5.41667 4.58334H14.5833L15.8333 8.33334H4.16667Z" fill="#141B34"/>
</svg>
