<svg width="32" height="32" viewBox="0 0 32 32" fill="none" xmlns="http://www.w3.org/2000/svg">
<path d="M25.678 24.5312H5.14776V22.9521H25.678V24.5312ZM9.70245 6.0703C10.0683 5.9273 10.4836 6.0057 10.7728 6.27148L17.7435 12.6777L22.7415 10.3965C23.5434 10.0305 24.488 10.4134 24.8089 11.2344C25.1174 12.0241 24.7275 12.914 23.9378 13.2226L7.03643 19.8301C6.58117 20.008 6.06322 19.8309 5.8128 19.4111L4.06475 16.4795C3.91947 16.2353 4.02854 15.9189 4.29327 15.8154C4.43649 15.7596 4.59793 15.7791 4.72393 15.8672L6.85577 17.3574L13.6985 14.2588L9.22393 7.60253C8.85672 7.05632 9.08947 6.30996 9.70245 6.0703Z" fill="white"/>
</svg>
