<svg width="24" height="24" viewBox="0 0 24 24" fill="none" xmlns="http://www.w3.org/2000/svg">
<path d="M2 18V5H3V14H11.5V7H19C19.8253 7 20.5317 7.29367 21.119 7.881C21.7063 8.46833 22 9.17467 22 10V18H21V15H3V18H2ZM6.998 12.116C6.40933 12.116 5.91 11.91 5.5 11.498C5.09 11.086 4.885 10.586 4.885 9.998C4.885 9.41 5.09067 8.91067 5.502 8.5C5.91333 8.08933 6.41333 7.88433 7.002 7.885C7.59067 7.88567 8.09 8.09133 8.5 8.502C8.91 8.91267 9.11533 9.41267 9.116 10.002C9.11667 10.5913 8.91067 11.0907 8.498 11.5C8.08533 11.9093 7.58533 12.1147 6.998 12.116Z" fill="#141B34"/>
</svg>
