<svg width="16" height="16" viewBox="0 0 16 16" fill="none" xmlns="http://www.w3.org/2000/svg">
<g clip-path="url(#clip0_426_6236)">
<path d="M9.25 8C9.25 8.33152 9.1183 8.64946 8.88388 8.88388C8.64946 9.1183 8.33152 9.25 8 9.25C7.66848 9.25 7.35054 9.1183 7.11612 8.88388C6.8817 8.64946 6.75 8.33152 6.75 8C6.75 7.66848 6.8817 7.35054 7.11612 7.11612C7.35054 6.8817 7.66848 6.75 8 6.75C8.33152 6.75 8.64946 6.8817 8.88388 7.11612C9.1183 7.35054 9.25 7.66848 9.25 8Z" fill="#151C34"/>
<path fill-rule="evenodd" clip-rule="evenodd" d="M8 16C10.1217 16 12.1566 15.1571 13.6569 13.6569C15.1571 12.1566 16 10.1217 16 8C16 5.87827 15.1571 3.84344 13.6569 2.34315C12.1566 0.842855 10.1217 0 8 0C5.87827 0 3.84344 0.842855 2.34315 2.34315C0.842855 3.84344 0 5.87827 0 8C0 10.1217 0.842855 12.1566 2.34315 13.6569C3.84344 15.1571 5.87827 16 8 16ZM6 5H12L10 11H4L6 5Z" fill="#151C34"/>
</g>
<defs>
<clipPath id="clip0_426_6236">
<rect width="16" height="16" fill="white"/>
</clipPath>
</defs>
</svg>
