<svg width="18" height="18" viewBox="0 0 18 18" fill="none" xmlns="http://www.w3.org/2000/svg">
<g clip-path="url(#clip0_0_19)">
<path d="M16.1171 9.13643C16.1171 8.53899 16.0687 8.10302 15.9638 7.65091H9.1416V10.3474H13.146C13.0653 11.0176 12.6294 12.0268 11.6605 12.7049L11.6469 12.7952L13.804 14.4662L13.9534 14.4811C15.3259 13.2136 16.1171 11.3486 16.1171 9.13643Z" fill="#4285F4"/>
<path d="M9.14154 16.2412C11.1034 16.2412 12.7504 15.5953 13.9534 14.4811L11.6605 12.7049C11.0469 13.1328 10.2234 13.4315 9.14154 13.4315C7.22005 13.4315 5.58921 12.164 5.00785 10.4121L4.92264 10.4193L2.67972 12.1551L2.65039 12.2367C3.84526 14.6103 6.29963 16.2412 9.14154 16.2412Z" fill="#34A853"/>
<path d="M5.00848 10.4121C4.85509 9.95996 4.76631 9.47551 4.76631 8.97498C4.76631 8.47438 4.85509 7.98999 5.00041 7.53788L4.99635 7.44159L2.72532 5.67789L2.65102 5.71323C2.15855 6.69822 1.87598 7.80431 1.87598 8.97498C1.87598 10.1456 2.15855 11.2517 2.65102 12.2367L5.00848 10.4121Z" fill="#FBBC05"/>
<path d="M9.14154 4.51835C10.506 4.51835 11.4263 5.10771 11.9511 5.60023L14.0018 3.59798C12.7424 2.42732 11.1034 1.70877 9.14154 1.70877C6.29963 1.70877 3.84526 3.33962 2.65039 5.71322L4.99978 7.53787C5.58921 5.78591 7.22005 4.51835 9.14154 4.51835Z" fill="#EB4335"/>
</g>
<g clip-path="url(#clip1_0_19)">
<path d="M16.1171 9.13643C16.1171 8.53899 16.0687 8.10302 15.9638 7.65091H9.1416V10.3474H13.146C13.0653 11.0176 12.6294 12.0268 11.6605 12.7049L11.6469 12.7952L13.804 14.4662L13.9534 14.4811C15.3259 13.2136 16.1171 11.3486 16.1171 9.13643Z" fill="#27273F"/>
<path d="M9.14154 16.2412C11.1034 16.2412 12.7504 15.5953 13.9534 14.4811L11.6605 12.7049C11.0469 13.1328 10.2234 13.4315 9.14154 13.4315C7.22005 13.4315 5.58921 12.164 5.00785 10.4121L4.92264 10.4193L2.67972 12.1551L2.65039 12.2367C3.84526 14.6103 6.29963 16.2412 9.14154 16.2412Z" fill="#27273F"/>
<path d="M5.00848 10.4121C4.85509 9.95996 4.76631 9.47551 4.76631 8.97498C4.76631 8.47438 4.85509 7.98999 5.00041 7.53788L4.99635 7.44159L2.72532 5.67789L2.65102 5.71323C2.15855 6.69822 1.87598 7.80431 1.87598 8.97498C1.87598 10.1456 2.15855 11.2517 2.65102 12.2367L5.00848 10.4121Z" fill="#27273F"/>
<path d="M9.14154 4.51835C10.506 4.51835 11.4263 5.10771 11.9511 5.60023L14.0018 3.59798C12.7424 2.42732 11.1034 1.70877 9.14154 1.70877C6.29963 1.70877 3.84526 3.33962 2.65039 5.71322L4.99978 7.53787C5.58921 5.78591 7.22005 4.51835 9.14154 4.51835Z" fill="#27273F"/>
</g>
<defs>
<clipPath id="clip0_0_19">
<rect width="14.25" height="14.5825" fill="white" transform="translate(1.875 1.70877)"/>
</clipPath>
<clipPath id="clip1_0_19">
<rect width="14.25" height="14.5825" fill="white" transform="translate(1.875 1.70877)"/>
</clipPath>
</defs>
</svg>
