<svg width="18" height="18" viewBox="0 0 18 18" fill="none" xmlns="http://www.w3.org/2000/svg">
<path d="M9.78613 2C11.1613 2.00005 12.2078 2.28949 12.9248 2.86816C13.5501 3.36305 13.9025 4.05228 13.9824 4.93555C14.2454 5.05851 14.4858 5.20858 14.7012 5.38867H14.7002C15.4534 6.00777 15.8037 6.89441 15.8037 7.96777C15.8037 9.23905 15.4065 10.2924 14.5664 11.0615C13.7262 11.8307 12.5475 12.1767 11.1104 12.1768H8.8418L8.33984 15.3311C8.26261 15.8165 7.84411 16.1738 7.35254 16.1738H5.58594C4.97118 16.1738 4.5014 15.6247 4.59766 15.0176L4.75977 14H2.58887C2.28041 13.9999 2.04569 13.7233 2.0957 13.4189L3.90625 2.41895C3.946 2.17739 4.15461 2 4.39941 2H9.78613ZM13.9502 6.0752C13.818 7.03288 13.418 7.80831 12.748 8.40039C11.9135 9.13779 10.7028 9.50676 9.11621 9.50684H6.48633L5.58594 15.1738H7.35254L7.85449 12.0195C7.93192 11.5342 8.35033 11.1768 8.8418 11.1768H11.1104C12.3983 11.1767 13.2986 10.8671 13.8916 10.3242C14.4847 9.78121 14.8037 9.01788 14.8037 7.96777C14.8037 7.12488 14.5394 6.54934 14.0635 6.15918L14.0596 6.15625C14.0252 6.12747 13.9873 6.10232 13.9502 6.0752Z" fill="#27273F"/>
</svg>
