<svg width="32" height="24" viewBox="0 0 32 24" fill="none" xmlns="http://www.w3.org/2000/svg">
  <rect width="32" height="24" fill="#DE2910"/>
  <g fill="#FFDE00">
    <polygon points="6,4 7.5,7.5 11,6 8.5,9 10,12.5 6,10.5 2,12.5 3.5,9 1,6 4.5,7.5"/>
    <polygon points="14,3 14.5,4.5 16,4 15,5.5 15.5,7 14,6 12.5,7 13,5.5 12,4 13.5,4.5"/>
    <polygon points="16,7 16.5,8.5 18,8 17,9.5 17.5,11 16,10 14.5,11 15,9.5 14,8 15.5,8.5"/>
    <polygon points="15,11 15.5,12.5 17,12 16,13.5 16.5,15 15,14 13.5,15 14,13.5 13,12 14.5,12.5"/>
    <polygon points="12,9 12.5,10.5 14,10 13,11.5 13.5,13 12,12 10.5,13 11,11.5 10,10 11.5,10.5"/>
  </g>
</svg>