<svg width="24" height="24" viewBox="0 0 24 24" fill="none" xmlns="http://www.w3.org/2000/svg">
  <path d="M22 21C21 20.5 20 20 19 20C18 20 17 20.5 16 21C15 20.5 14 20 13 20C12 20 11 20.5 10 21C9 20.5 8 20 7 20C6 20 5 20.5 4 21C3 20.5 2 20 1 20V22C2 22 3 22.5 4 23C5 22.5 6 22 7 22C8 22 9 22.5 10 23C11 22.5 12 22 13 22C14 22 15 22.5 16 23C17 22.5 18 22 19 22C20 22 21 22.5 22 23V21Z" fill="currentColor"/>
  <path d="M22 17C21 16.5 20 16 19 16C18 16 17 16.5 16 17C15 16.5 14 16 13 16C12 16 11 16.5 10 17C9 16.5 8 16 7 16C6 16 5 16.5 4 17C3 16.5 2 16 1 16V18C2 18 3 18.5 4 19C5 18.5 6 18 7 18C8 18 9 18.5 10 19C11 18.5 12 18 13 18C14 18 15 18.5 16 19C17 18.5 18 18 19 18C20 18 21 18.5 22 19V17Z" fill="currentColor"/>
  <circle cx="16.5" cy="8" r="2.5" fill="currentColor"/>
  <path d="M7 14C8.66 14 10 12.66 10 11C10 9.34 8.66 8 7 8C5.34 8 4 9.34 4 11C4 12.66 5.34 14 7 14Z" fill="currentColor"/>
  <path d="M12.5 11L14 9.5L15.5 11L14 12.5L12.5 11Z" fill="currentColor"/>
</svg>