<svg width="24" height="24" viewBox="0 0 24 24" fill="none" xmlns="http://www.w3.org/2000/svg">
  <path d="M8.55 12C9.66 10.83 10.08 9.24 9.73 7.53C9.57 6.67 9.23 5.83 8.74 5.08C8.74 5.08 8.74 5.08 8.74 5.08C8.2 4.24 7.46 3.55 6.59 3.07C5.1 2.26 3.34 2.21 1.81 2.95C1.81 2.95 1.81 2.95 1.81 2.95C3.05 4.92 3.62 7.18 3.44 9.44C3.26 11.7 2.35 13.84 0.81 15.5C2.59 16.57 4.77 16.57 6.55 15.5C7.39 14.97 8.05 14.22 8.46 13.33C8.87 12.44 8.99 11.45 8.81 10.5C8.72 10.02 8.64 9.54 8.55 9.06V12Z" fill="currentColor"/>
  <path d="M22.25 14.29C21.35 12.87 19.96 11.8 18.32 11.25C16.68 10.7 14.89 10.7 13.25 11.25C11.61 11.8 10.22 12.87 9.32 14.29C8.42 15.71 8.06 17.39 8.3 19.05C8.54 20.71 9.36 22.24 10.6 23.37C11.84 24.5 13.43 25.16 15.1 25.24C16.77 25.32 18.42 24.81 19.77 23.8C21.12 22.79 22.09 21.34 22.53 19.7C22.97 18.06 22.86 16.32 22.25 14.29Z" fill="currentColor"/>
</svg>